<svg width="18" height="25" viewBox="0 0 16 21" fill="none" xmlns="http://www.w3.org/2000/svg">
<path d="M7.99624 11.5713C5.42481 11.5713 3.49624 8.82915 3.49624 5.63379C3.49624 2.43843 5.15592 0.571289 7.99624 0.571289C10.8366 0.571289 12.4962 2.43843 12.4962 5.63379C12.4962 8.82915 10.5677 11.5713 7.99624 11.5713ZM7.99624 20.5713C3.62261 20.5713 1.00569 19.9857 0.145484 18.8146C0.0451742 18.678 -0.00588977 18.5115 0.000540467 18.3421C0.121323 15.1616 2.78656 13.5713 7.99624 13.5713C13.206 13.5713 15.8712 15.1616 15.9919 18.3423C15.9984 18.5116 15.9472 18.6782 15.8469 18.8148C14.9865 19.9858 12.3696 20.5713 7.99624 20.5713Z" fill="white"/>
</svg>
