<svg width="25" height="25" viewBox="0 0 25 25" fill="none" xmlns="http://www.w3.org/2000/svg">
<g clip-path="url(#clip0_26045_1450)">
<path d="M8.28125 16.4058H20.9846C21.2991 16.4058 21.5751 16.1987 21.6602 15.898L24.4729 6.09787C24.5333 5.88659 24.4919 5.65964 24.3588 5.48409C24.2255 5.3091 24.0183 5.20574 23.7971 5.20574H6.65802L6.1554 2.95409C6.08398 2.63344 5.79834 2.40576 5.46875 2.40576H1.20313C0.814575 2.40576 0.5 2.71894 0.5 3.10576C0.5 3.49276 0.814575 3.80575 1.20313 3.80575H4.90442L7.44354 15.1807C6.69647 15.504 6.17188 16.2443 6.17188 17.1058C6.17188 18.2637 7.11816 19.2058 8.28125 19.2058H20.9846C21.3733 19.2058 21.6877 18.8928 21.6877 18.5058C21.6877 18.119 21.3733 17.8058 20.9846 17.8058H8.28125C7.89398 17.8058 7.57813 17.4921 7.57813 17.1058C7.57813 16.7195 7.89398 16.4058 8.28125 16.4058Z" fill="white"/>
<path d="M7.57812 21.3055C7.57812 22.4636 8.52441 23.4055 9.68768 23.4055C10.8508 23.4055 11.7971 22.4636 11.7971 21.3055C11.7971 20.1476 10.8508 19.2056 9.68768 19.2056C8.52441 19.2056 7.57812 20.1476 7.57812 21.3055Z" fill="white"/>
<path d="M17.4689 21.3055C17.4689 22.4636 18.4152 23.4055 19.5782 23.4055C20.7415 23.4055 21.6876 22.4636 21.6876 21.3055C21.6876 20.1476 20.7415 19.2056 19.5782 19.2056C18.4152 19.2056 17.4689 20.1476 17.4689 21.3055Z" fill="white"/>
</g>
<defs>
<clipPath id="clip0_26045_1450">
<rect width="24" height="24" fill="white" transform="translate(0.5 0.905762)"/>
</clipPath>
</defs>
</svg>
